<svg width="1488" height="1200" fill="none" xmlns="http://www.w3.org/2000/svg"><ellipse opacity=".6" cx="796" cy="685" rx="447" ry="443" fill="url(#prefix__a)"/><path fill-rule="evenodd" clip-rule="evenodd" d="M729.5 1C1147.86 1 1487 340.368 1487 759c0 164.499-52.37 316.76-141.33 441h1.23c88.83-124.3 141.1-276.541 141.1-441 0-419.184-339.59-759-758.5-759C310.592 0-29 339.816-29 759c0 164.459 52.272 316.7 141.097 441h1.229C24.366 1075.76-28 923.499-28 759-28 340.368 311.145 1 729.5 1" fill="url(#prefix__b)"/><defs><linearGradient id="prefix__a" x1="1032.34" y1="1147.9" x2="599.935" y2="326.672" gradientUnits="userSpaceOnUse"><stop stop-color="#272727" stop-opacity="0"/><stop stop-color="#272727" stop-opacity=".73"/><stop offset=".47" stop-color="#262626" stop-opacity=".053"/><stop offset="1" stop-color="#363636" stop-opacity="0"/></linearGradient><linearGradient id="prefix__b" x1="54.516" y1="1126.26" x2="1485.05" y2="479.288" gradientUnits="userSpaceOnUse"><stop offset=".305" stop-color="#4F4F4F" stop-opacity=".31"/><stop offset=".692" stop-color="#4F4F4F"/><stop offset="1" stop-color="#4F4F4F" stop-opacity=".16"/></linearGradient></defs></svg>